<svg width="96" height="96" xmlns="http://www.w3.org/2000/svg" xmlns:xlink="http://www.w3.org/1999/xlink" xml:space="preserve" overflow="hidden"><defs><clipPath id="clip0"><rect x="113" y="341" width="96" height="96"/></clipPath></defs><g clip-path="url(#clip0)" transform="translate(-113 -341)"><path d="M142 417 142 416 146 416C153.1 416 153.6 424 167 424L185 424C188.31 423.99 190.99 421.31 191 418 191.023 416.514 190.453 415.081 189.416 414.017 189.412 414.013 189.412 414.007 189.416 414.003 189.418 414.001 189.42 414 189.423 414L190 414C193.31 413.99 195.99 411.31 196 408 196.015 406.435 195.407 404.929 194.311 403.812 194.307 403.809 194.306 403.802 194.309 403.798 194.31 403.797 194.31 403.797 194.311 403.796 197.531 403.089 199.568 399.905 198.86 396.685 198.601 395.507 197.991 394.435 197.111 393.61 197.107 393.607 197.106 393.602 197.108 393.598 197.109 393.596 197.11 393.596 197.111 393.595 199.468 392.75 201.03 390.504 201 388 200.99 384.69 198.31 382.01 195 382L176 382C174.393 381.972 173.082 380.705 173 379.1 173.1 377.3 175.99 373.712 176 360.068 176.016 356.951 173.659 354.333 170.557 354.025 170.37 354.008 170.184 354 170 354 166.686 354 164 356.686 164 360 164 372.36 152.3 380.356 147.761 383.02 146.665 383.663 145.417 384.001 144.146 384L142 384 142 383C141.993 380.794 140.206 379.007 138 379L121 379 121 421 138 421C140.206 420.993 141.993 419.206 142 417ZM144.146 386C145.775 386 147.376 385.566 148.781 384.741 153.958 381.7 166 373.2 166 360 166 357.791 167.791 356 170 356 172.209 355.996 174.003 357.784 174.007 359.993 174.008 360.076 174.005 360.159 174 360.242 173.975 370 172.447 374.305 171.626 376.615 171.305 377.372 171.094 378.172 171 378.989 170.996 379.06 170.996 379.132 171 379.203 171.149 381.867 173.332 383.962 176 384L194.994 384C197.207 384.014 198.996 385.81 199 388.024 199.02 389.678 197.987 391.161 196.429 391.716 195.389 392.087 194.846 393.231 195.217 394.271 195.324 394.573 195.503 394.845 195.737 395.063 196.625 395.89 197.089 397.074 197 398.284 196.807 400.045 195.513 401.487 193.783 401.869 192.717 402.158 192.087 403.256 192.375 404.322 192.466 404.655 192.641 404.96 192.883 405.205 193.61 405.95 194.012 406.953 194 407.994 193.988 410.199 192.205 411.985 190 412L189.4 412C188.295 412.001 187.401 412.897 187.401 414.001 187.402 414.524 187.607 415.026 187.973 415.4 188.648 416.093 189.018 417.027 189 417.994 188.989 420.199 187.205 421.985 185 422L167 422C159.933 422 156.992 419.7 154.147 417.486 151.95 415.772 149.679 414 146 414L142 414 142 386ZM123 381 138 381C139.101 381.009 139.991 381.899 140 383L140 416.994C139.995 418.098 139.104 418.992 138 419L123 419Z" stroke="#FFFFFF" stroke-width="4" fill="#FFFFFF"/></g></svg>